<?xml version="1.0" encoding="UTF-8" standalone="no"?>
<!-- Created with Inkscape (http://www.inkscape.org/) -->

<svg
   width="7256.6929"
   height="4081.8896"
   viewBox="0 0 1920 1080"
   version="1.1"
   id="svg5"
   inkscape:version="1.1.2 (0a00cf5339, 2022-02-04)"
   xmlns:inkscape="http://www.inkscape.org/namespaces/inkscape"
   xmlns:sodipodi="http://sodipodi.sourceforge.net/DTD/sodipodi-0.dtd"
   xmlns="http://www.w3.org/2000/svg"
   xmlns:svg="http://www.w3.org/2000/svg">
  <sodipodi:namedview
     id="namedview7"
     pagecolor="#ffffff"
     bordercolor="#666666"
     borderopacity="1.0"
     inkscape:pageshadow="2"
     inkscape:pageopacity="0"
     inkscape:pagecheckerboard="true"
     inkscape:document-units="px"
     showgrid="true"
     units="px"
     inkscape:zoom="0.16740538"
     inkscape:cx="3625.9288"
     inkscape:cy="2042.9451"
     inkscape:window-width="2560"
     inkscape:window-height="1376"
     inkscape:window-x="0"
     inkscape:window-y="0"
     inkscape:window-maximized="1"
     inkscape:current-layer="g309">
    <inkscape:grid
       type="xygrid"
       id="grid2593"
       spacingx="63.500001"
       spacingy="35.718751"
       empspacing="4" />
  </sodipodi:namedview>
  <defs
     id="defs2" />
  <g
     inkscape:label="Layer 1"
     inkscape:groupmode="layer"
     id="layer1">
    <g
       id="g309"
       transform="matrix(0.07325168,0,0,-0.07325168,1354.6699,905.41119)">
      <path
         inkscape:connector-curvature="0"
         id="path3813"
         d="m -6820.8728,4433.1366 49.5473,0.6199 19.2648,2.9326 19.2647,2.9324 17.1947,4.0173 17.1945,4.0176 18.5266,6.4283 18.5272,6.4285 16.9689,8.5223 16.9696,8.5225 13.1164,8.8668 13.1167,8.8671 13.5651,12.5798 13.5654,12.5801 11.373,15.2407 11.3725,15.2409 8.0682,16.8272 8.0681,16.8276 3.7868,11.3069 3.7871,11.3068 3.4055,15.8039 3.4058,15.8038 -0.059,33.6551 -0.059,33.6548 -3.416,15.8926 -3.4161,15.8923 -5.3546,14.7123 -5.3544,14.7121 -6.7729,12.399 -6.7734,12.3985 -7.6324,10.2833 -7.6327,10.2835 -15.0919,15.634 -15.092,15.6339 -14.9577,11.6416 -14.9576,11.6418 -11.7616,7.9026 -11.7613,7.9026 -101.3563,58.0017 -101.3563,58.0019 -9.7006,7.2901 -9.7006,7.2908 -4.6492,6.1033 -4.6491,6.1031 -2.1837,8.6864 -2.1838,8.6866 2.2584,10.8811 2.2583,10.8815 5.9908,5.9906 5.9903,5.9905 11.088,3.4221 11.0883,3.4223 50.4824,-0.053 50.482,-0.053 29.9154,-2.362 29.9153,-2.3619 38.3293,-3.6805 38.3292,-3.6803 21.729,-2.8014 21.7291,-2.8009 7.0731,2.37 7.0727,2.3698 3.918,5.2758 3.918,5.276 0.5638,64.8382 0.5639,64.8387 -1.1187,6.0894 -1.1186,6.0894 -6.9243,7.1837 -6.9242,7.1832 -15.8927,4.2483 -15.8926,4.2479 -28.0456,6.3012 -28.046,6.3009 -31.7849,4.6185 -31.7852,4.6185 -24.3062,2.3056 -24.3061,2.3056 -56.0917,0.1081 -56.0914,0.1082 -19.632,-2.4425 -19.6318,-2.4424 -22.7166,-4.5423 -22.7168,-4.5423 -17.4821,-5.8479 -17.4823,-5.8481 -16.3606,-8.1329 -16.3611,-8.1324 -10.7497,-7.3311 -10.7503,-7.3311 -9.2266,-8.1584 -9.2261,-8.1588 -10.4544,-13.1554 -10.454,-13.1556 -7.706,-14.8949 -7.706,-14.8947 -4.8816,-15.5716 -4.882,-15.5718 -2.7801,-17.1485 -2.7805,-17.148 v -23.3717 -23.3713 l 2.7625,-18.3297 2.7623,-18.3297 5.5799,-16.6554 5.5804,-16.6554 6.8435,-13.6274 6.8437,-13.6272 11.011,-16.1094 11.0109,-16.109 18.1972,-17.5456 18.197,-17.546 14.0228,-9.5893 14.0232,-9.5897 102.8339,-59.3704 102.8342,-59.3709 10.2834,-7.0531 10.2835,-7.0529 7.8578,-8.124 7.8576,-8.1236 2.8937,-6.9518 2.8937,-6.9513 -0.029,-14.5503 -0.029,-14.5503 -3.8012,-8.38 -3.801,-8.38 -3.1693,-3.5076 -3.1693,-3.5079 -8.7872,-4.4561 -8.7873,-4.4561 -17.3888,-3.0517 -17.3884,-3.0516 -35.5248,1.1542 -35.5245,1.154 -37.3941,2.8936 -37.3945,2.8935 -36.4594,3.6608 -36.4592,3.6607 -25.452,3.0818 -25.4518,3.0814 -7.2434,-3.5481 -7.2436,-3.5488 -4.2316,-6.3533 -4.2312,-6.3529 v -65.2236 -65.2236 l 2.5624,-6.0164 2.5624,-6.0163 4.4732,-4.118 4.4734,-4.1174 6.5185,-2.7088 6.5185,-2.7086 26.1761,-5.6857 26.1759,-5.6861 23.3715,-3.7404 23.3712,-3.7401 33.6549,-3.8558 33.655,-3.8561 23.3713,-1.7071 23.3712,-1.707 49.5474,0.6199 z m 747.8851,0.027 42.0686,0.6524 19.2252,2.8907 19.2254,2.8905 20.039,4.8903 20.0382,4.8903 17.7623,6.5756 17.7623,6.5753 20.1917,10.2805 20.191,10.2806 14.3987,10.3003 14.398,10.3006 13.7499,12.271 13.7495,12.2705 12.663,15.0835 12.6631,15.0829 10.6768,16.4291 10.6771,16.4289 9.8839,20.9656 9.8846,20.9652 5.8054,17.7622 5.8054,17.7624 4.6388,19.6319 4.6385,19.6319 3.3478,22.4368 3.3477,22.4364 v 100.0296 100.0298 l -3.3806,22.4365 -3.3812,22.4365 -5.3634,22.4366 -5.3635,22.4366 -5.9082,16.8274 -5.908,16.8272 -9.9233,20.5668 -9.9234,20.5672 -11.1331,16.8274 -11.1329,16.8276 -14.0381,15.9749 -14.0382,15.9749 -14.7578,12.2911 -14.7586,12.2907 -15.8927,10.3055 -15.8923,10.3052 -13.088,6.5358 -13.0883,6.5358 -18.697,7.0042 -18.6969,7.0043 -20.5669,5.1773 -20.5671,5.177 -22.4364,3.3995 -22.4366,3.3999 h -44.8732 -44.8728 l -21.5022,-3.2962 -21.5013,-3.2962 -16.8275,-3.8946 -16.8276,-3.8947 -21.5013,-7.3948 -21.5022,-7.3946 -20.0484,-10.2519 -20.0482,-10.2519 -16.3998,-11.552 -16.3997,-11.5519 -17.5464,-16.827 -17.5467,-16.8276 -10.6781,-14.0228 -10.6787,-14.0228 -7.7937,-12.3796 -7.7941,-12.3797 -10.0313,-21.2753 -10.0314,-21.2752 -5.7634,-17.7621 -5.764,-17.7627 -3.6733,-14.9577 -3.6739,-14.9574 -2.9113,-17.7623 -2.9115,-17.7621 -2.1016,-25.7903 -2.0989,-25.7902 0.9073,-82.653 0.9071,-82.6535 3.0758,-21.5017 3.0759,-21.5015 4.6505,-19.6322 4.6502,-19.6322 5.7203,-17.7621 5.7203,-17.7621 11.1961,-23.3715 11.1964,-23.3715 12.3662,-18.6969 12.3656,-18.6975 23.5069,-23.4429 23.5072,-23.4431 17.2668,-11.6974 17.267,-11.6978 20.7472,-10.3431 20.7479,-10.3435 21.8166,-7.1474 21.8161,-7.1475 17.7622,-3.7829 17.7623,-3.7819 17.7623,-2.0157 17.7623,-2.0158 5.6091,-0.7756 5.6092,-0.7756 42.0684,0.6521 z m -9.1804,193.5843 -21.6698,0.1081 -13.6456,3.5752 -13.646,3.5747 -11.5951,6.0716 -11.5953,6.0711 -12.1535,12.3295 -12.1529,12.3297 -6.3563,10.7259 -6.3559,10.7255 -6.1977,18.1451 -6.1979,18.145 -3.3151,17.7625 -3.3156,17.762 -0.024,86.0071 -0.023,86.0067 2.5659,16.8275 2.566,16.8275 4.5457,15.8004 4.5462,15.8001 7.7276,14.8529 7.7274,14.8531 10.4015,11.2563 10.4019,11.2563 9.9964,6.408 9.9956,6.4083 13.3754,4.7024 13.3754,4.7027 24.5544,0.9691 24.5547,0.9689 14.2485,-3.1702 14.2487,-3.1701 13.5488,-6.7266 13.5488,-6.7266 12.4436,-12.5842 12.4441,-12.5838 8.6262,-17.4871 8.6263,-17.4874 4.4578,-17.7623 4.4575,-17.7623 2.2224,-21.5738 2.2223,-21.574 -0.8883,-80.3255 -0.8884,-80.3253 -3.1033,-15.8551 -3.1038,-15.8556 -5.6245,-16.8646 -5.6249,-16.8644 -7.6018,-12.8483 -7.6023,-12.848 -10.7783,-10.6125 -10.7783,-10.6123 -11.32,-6.0334 -11.3199,-6.0335 -14.4412,-3.6939 -14.4417,-3.6931 -21.67,0.1082 z m 2611.2052,-194.2541 37.713,-0.2979 28.662,1.9244 28.662,1.9244 30.8501,3.8183 30.8505,3.8187 22.4169,4.5368 22.4174,4.5368 11.2376,3.7482 11.2375,3.7487 5.9749,3.6443 5.9749,3.6447 3.3739,5.1483 3.3735,5.1488 v 79.8757 79.8754 l -3.8601,5.2785 -3.8599,5.2789 -6.9471,3.4526 -6.9468,3.4529 -51.8284,-3.8927 -51.8287,-3.8928 -39.2556,-2.1043 -39.2556,-2.1042 -37.4025,0.9313 -37.4026,0.9313 -15.8927,4.0258 -15.8927,4.0261 -14.9577,7.2675 -14.9577,7.2678 -12.2848,10.1831 -12.2846,10.1837 -9.0325,11.9214 -9.032,11.9215 -8.9613,18.6973 -8.9609,18.6972 -4.5739,15.8925 -4.5737,15.8927 -2.9713,17.7621 -2.9712,17.7621 -1.9056,20.5671 -1.9055,20.5665 v 118.7269 118.7269 l 1.9619,21.5016 1.9619,21.5017 4.529,22.6265 4.5291,22.6263 5.8178,16.6378 5.8184,16.6374 6.6868,12.1531 6.6866,12.1532 7.8578,10.2834 7.8574,10.2835 8.609,7.9347 8.6094,7.9349 9.9669,6.3759 9.9667,6.3756 11.1217,4.6282 11.1219,4.6283 13.088,3.4978 13.0883,3.4974 66.3744,-0.1081 66.3749,-0.1081 54.2217,-4.3236 54.2215,-4.324 11.5485,-0.2416 11.5475,-0.2415 5.2797,3.9074 5.2793,3.9076 2.8042,5.4413 2.8041,5.4407 0.5689,71.984 0.569,71.984 -1.2052,8.3009 -1.2051,8.3012 -6.0206,6.0207 -6.0205,6.0207 -15.7809,4.7915 -15.7809,4.791 -14.0228,2.9504 -14.0228,2.9502 -23.4338,3.6121 -23.4344,3.6119 -30.7873,2.7417 -30.7876,2.7414 -33.655,1.2212 -33.6549,1.2239 -29.9154,-2.1069 -29.9152,-2.107 -23.3715,-3.7517 -23.3715,-3.751 -21.9986,-5.7097 -21.9986,-5.7098 -21.8008,-8.2711 -21.801,-8.2711 -21.5113,-11.2985 -21.5118,-11.2987 -16.9564,-11.8409 -16.9566,-11.8406 -14.2877,-12.8367 -14.2877,-12.8363 -11.498,-12.7431 -11.498,-12.7427 -9.8341,-13.4332 -9.8338,-13.4328 -7.6213,-12.2109 -7.6212,-12.2104 -7.0342,-13.9659 -7.0348,-13.9649 -8.0046,-19.915 -8.0054,-19.9153 -5.751,-20.0606 -5.7504,-20.0608 -4.671,-22.6596 -4.6709,-22.6597 -3.124,-21.5014 -3.1237,-21.5017 -0.7863,-142.0986 -0.7863,-142.0978 2.1633,-26.1763 2.1632,-26.1759 4.4398,-26.3601 4.44,-26.3605 4.7184,-18.5125 4.718,-18.5133 6.3969,-18.697 6.397,-18.6969 6.8794,-15.8928 6.88,-15.8923 7.6616,-14.0228 7.6624,-14.0228 12.6984,-18.6975 12.6989,-18.6969 12.8574,-14.214 12.8569,-14.2143 13.3156,-12.2193 13.3153,-12.2196 12.693,-9.5057 12.693,-9.5057 18.971,-11.3007 18.9706,-11.3007 19.3188,-8.449 19.3185,-8.4486 23.42,-7.4929 23.4199,-7.4928 22.4365,-4.4735 22.437,-4.4742 17.7623,-1.9997 17.7623,-1.9995 6.5441,-0.6254 6.5441,-0.6254 37.7125,-0.2979 z m 868.7635,-0.2979 h 114.1481 l 12.2726,3.0107 12.2726,3.0106 15.1799,7.0364 15.1802,7.0366 11.9305,7.9626 11.9311,7.9625 246.2256,246.0863 246.2251,246.0873 -247.1732,245.867 -247.1734,245.8673 -10.8759,6.3887 -10.8757,6.3886 -16.2221,6.0757 -16.2218,6.0757 -14.4113,2.9623 -14.4115,2.9592 h -111.4497 -111.4497 l -3.3966,-1.8171 -3.3966,-1.817 -1.1432,-2.9745 -1.1435,-2.9741 2.6733,-5.0231 2.6732,-5.0233 250.6609,-250.5392 250.6613,-250.5389 v -1.8734 -1.8733 l -247.9365,-247.734 -247.9369,-247.7347 -5.4093,-8.3123 -5.4097,-8.3123 v -3.2378 -3.2373 l 4.9264,-3.8754 4.9262,-3.8753 h 114.1488 z m -6137.1905,13.097 h 100.221 l 6.094,3.7155 6.094,3.7153 3.715,6.0936 3.715,6.0934 v 178.1283 178.1278 l 18.23,-1.4413 18.229,-1.4413 h 74.789 74.789 l 23.371,3.3254 23.372,3.3254 27.602,5.5481 27.603,5.5484 28.233,9.3068 28.233,9.3072 22.692,11.0584 22.692,11.0585 16.827,11.0855 16.828,11.0859 14.023,11.6207 14.023,11.6208 13.825,15.3576 13.825,15.3574 11.131,16.8274 11.133,16.8274 8.304,17.2841 8.306,17.2843 6.355,19.4024 6.356,19.402 3.74,19.4051 3.739,19.413 1.984,19.3627 1.984,19.3626 v 30.4538 30.4541 l -1.954,19.3625 -1.954,19.3626 -4.546,22.6265 -4.546,22.6266 -5.817,16.6375 -5.817,16.6379 -7.994,17.0023 -7.994,17.0026 -10.384,15.7173 -10.383,15.7175 -11.358,13.0879 -11.356,13.0879 -14.509,12.8002 -14.509,12.7999 -16.755,11.2219 -16.757,11.2221 -20.638,10.361 -20.638,10.3615 -19.271,7.2482 -19.271,7.2483 -24.667,6.4474 -24.667,6.4472 -21.327,3.7994 -21.328,3.8 -26.35,2.7206 -26.351,2.7206 -33.655,1.2267 -33.654,1.2266 -60.766,-2.1042 -60.766,-2.1043 -38.329,-2.7893 -38.329,-2.7891 -27.111,-2.8518 -27.111,-2.852 -22.748,-3.6431 -22.749,-3.6425 -10.732,-4.0153 -10.732,-4.0153 -7.828,-7.8288 -7.829,-7.8281 -3.564,-9.2224 -3.564,-9.2222 -0.474,-493.6042 -0.474,-493.6044 3.278,-6.5068 3.279,-6.5069 6.353,-4.244 6.353,-4.2441 h 100.22 z m 247.928,571.5141 -28.045,-0.8105 -46.743,1.3849 -46.743,1.3849 -3.273,0.2683 -3.271,0.2683 v 146.4926 146.4924 l 16.525,1.1729 16.525,1.173 52.187,1.2103 52.187,1.2106 21.502,-2.174 21.502,-2.1741 15.574,-3.669 15.575,-3.6695 12.471,-4.967 12.471,-4.9668 11.574,-7.2833 11.574,-7.2831 10.356,-11.1846 10.355,-11.1848 6.503,-13.5198 6.502,-13.5201 3.029,-12.1246 3.028,-12.125 1.032,-29.2685 1.033,-29.2683 -2.253,-15.6049 -2.252,-15.6047 -4.537,-13.6083 -4.536,-13.6086 -7.635,-12.0878 -7.634,-12.0878 -11.281,-10.2092 -11.282,-10.209 -15.202,-7.5063 -15.202,-7.5065 -17.762,-4.6358 -17.762,-4.636 -14.024,-1.8681 -14.023,-1.868 z m 624.293,-571.5149 h 93.677 l 5.975,3.6433 5.975,3.643 3.374,5.1483 3.373,5.1486 0.934,285.2138 0.934,285.2137 22.783,11.3281 22.783,11.3277 23.431,7.9119 23.429,7.9122 22.031,4.5704 22.032,4.5697 32.72,2.0156 32.72,2.0156 4.382,2.8429 4.381,2.843 3.627,8.1991 3.627,8.1993 -0.531,73.7761 -0.53,73.7759 -3.856,5.1608 -3.854,5.1608 -4.887,3.6486 -4.887,3.6484 -9.51,0.9125 -9.509,0.9127 -20.968,-2.3137 -20.968,-2.3135 -21.707,-5.3009 -21.707,-5.3004 -14.797,-5.8586 -14.797,-5.8588 -19.633,-10.2092 -19.631,-10.2094 -14.958,-11.1618 -14.958,-11.1616 -0.934,20.1155 -0.934,20.1155 -4.182,5.864 -4.183,5.864 -7.54,3.0173 -7.542,3.0171 -88.305,-0.028 -88.307,-0.028 -7.908,-3.5897 -7.907,-3.5899 -3.771,-6.1853 -3.771,-6.1852 v -388.1563 -388.1564 l 4.251,-6.3087 4.251,-6.3088 6.309,-4.2512 6.309,-4.2512 h 93.676 z m 528.224,0 h 94.6406 l 6.4677,3.4687 6.4686,3.4692 4.2668,8.0682 4.266,8.0684 -0.4799,387.5096 -0.4807,387.5096 -3.8545,5.1632 -3.8554,5.1631 -5.1616,3.8547 -5.1615,3.8551 -93.5891,0.5181 -93.59,0.518 -7.83,-3.7905 -7.831,-3.7904 -4.082,-7.2657 -4.084,-7.266 v -386.7762 -386.7761 l 3.269,-6.5067 3.269,-6.5063 6.353,-4.2446 6.353,-4.2442 h 94.64 z m 1841.24,0.4483 95.7011,0.4885 5.9608,5.6091 5.9609,5.6092 2.574,6.0164 2.574,6.0165 v 284.3504 284.3499 l 28.5133,13.8168 28.513,13.8165 16.8276,5.84 16.8272,5.8403 12.743,2.6848 12.7426,2.6847 23.7165,-0.028 23.7169,-0.028 12.5768,-2.6625 12.5771,-2.6679 8.9249,-3.9332 8.9245,-3.9337 8.7427,-8.5874 8.7432,-8.5874 4.9039,-10.9272 4.9038,-10.9273 3.0951,-12.6507 3.0953,-12.6506 1.0198,-269.2388 1.0199,-269.2389 3.8406,-6.5374 3.8405,-6.5373 6.2517,-4.2135 6.2521,-4.2131 h 93.8673 93.8678 l 6.3087,4.2514 6.3085,4.2513 4.2514,6.3086 4.2511,6.3084 v 263.9878 263.9875 l -2.7861,29.0975 -2.7863,29.0978 -3.7399,19.3478 -3.7397,19.3478 -3.8334,14.0225 -3.8338,14.0233 -4.8776,13.0878 -4.8777,13.088 -7.026,14.0229 -7.0255,14.0228 -9.7662,13.8353 -9.7657,13.8354 -11.9292,11.9286 -11.929,11.9289 -16.1123,10.5027 -16.1123,10.5026 -14.7428,6.2177 -14.743,6.218 -17.269,4.6133 -17.2686,4.6138 -14.9579,2.3969 -14.9576,2.394 -41.1339,0.028 -41.1336,0.028 -16.8272,-2.4936 -16.8276,-2.4934 -15.8928,-3.488 -15.8921,-3.4884 -15.8928,-5.4307 -15.8925,-5.4299 -12.1532,-5.1084 -12.1529,-5.1079 -16.7203,-9.3852 -16.7197,-9.3854 -16.0004,-10.5254 -15.9998,-10.5256 -1.4009,-0.6254 -1.4013,-0.6254 v 21.2202 21.2194 l -3.4101,6.5148 -3.4106,6.515 -8.275,4.2516 -8.2756,4.2521 -86.339,-0.5128 -86.3391,-0.5126 -5.1614,-3.8551 -5.1612,-3.8546 -3.855,-5.1635 -3.8549,-5.1631 v -389.2305 -389.231 l 4.4657,-6.2616 4.466,-6.2613 5.8176,-3.5756 5.8176,-3.5752 95.7012,0.4885 z m 847.7598,-0.4374 h 100.2207 l 6.3529,4.2441 6.3534,4.244 3.2688,6.5067 3.2691,6.5069 v 177.1929 177.193 l 18.2297,-1.4411 18.2298,-1.4413 74.7886,0.021 74.7885,0.024 23.3713,3.3247 23.3714,3.3249 28.0459,5.6745 28.0456,5.6745 28.0456,9.3168 28.0458,9.3174 22.4365,10.9225 22.4368,10.9225 20.5525,13.7414 20.5525,13.7415 19.3701,18.6514 19.3707,18.6517 11.8824,15.832 11.8819,15.8322 11.1368,21.6077 11.1363,21.6081 6.7668,19.5227 6.7666,19.5228 4.5129,22.5458 4.5126,22.5457 1.9619,21.5018 1.9621,21.5013 v 24.3063 24.3062 l -1.9621,21.5017 -1.9619,21.5022 -4.5476,22.7166 -4.5467,22.7167 -5.8209,17.4819 -5.8212,17.4826 -8.1334,17.0293 -8.1334,17.0293 -11.6029,17.3465 -11.6027,17.346 -17.9408,18.7054 -17.941,18.705 -14.0619,10.7147 -14.0619,10.7149 -13.0489,8.0322 -13.0488,8.0324 -22.4362,10.7086 -22.437,10.7087 -23.3711,7.6054 -23.3716,7.6052 -14.9577,3.7177 -14.9579,3.7174 -21.3274,3.8271 -21.3271,3.8267 -26.3503,2.7207 -26.3502,2.7207 -33.655,1.2266 -33.6548,1.2266 -60.7656,-2.1123 -60.766,-2.1124 -39.2638,-2.8041 -39.2641,-2.8043 -33.2448,-3.7484 -33.2445,-3.7486 -15.752,-2.7472 -15.7518,-2.7474 -10.0477,-3.7595 -10.0478,-3.7591 -7.5327,-6.4477 -7.5326,-6.448 -4.472,-9.8974 -4.4722,-9.8972 -0.4723,-495.4739 -0.4724,-495.4742 3.7253,-6.0936 3.7255,-6.0935 6.0934,-3.7157 6.0937,-3.7152 h 100.2207 z m 247.5462,571.508 -28.0459,-0.8106 -46.7426,1.3849 -46.7429,1.385 -3.272,0.2685 -3.2719,0.2683 v 146.5847 146.5841 l 23.8386,1.4898 23.839,1.4869 57.9612,0.081 57.9607,0.081 17.2706,-3.3025 17.2704,-3.3025 12.6451,-3.8728 12.6448,-3.873 14.9577,-7.6502 14.9579,-7.6501 13.093,-13.1975 13.0933,-13.1973 6.1042,-12.4486 6.1037,-12.4487 4.0064,-14.6624 4.006,-14.6622 0.1887,-35.5245 0.1887,-35.5245 -3.4699,-14.9575 -3.4704,-14.9577 -6.0511,-13.088 -6.0516,-13.0883 -7.8847,-9.9015 -7.8847,-9.9019 -11.1679,-8.2216 -11.1684,-8.2214 -12.3181,-5.82 -12.3186,-5.8202 -17.0684,-4.4726 -17.0685,-4.4722 -14.0228,-1.868 -14.0228,-1.8681 -28.0458,-0.8105 z m -2935.45,340.8963 h 101.3469 l 6.163,4.2068 6.1629,4.2072 3.4618,6.5144 3.4618,6.5147 v 71.1498 71.1495 l -4.2064,8.3427 -4.2072,8.3424 -6.5442,3.269 -6.5433,3.269 h -100.2213 -100.22 l -6.353,-4.2441 -6.353,-4.244 -3.269,-6.5069 -3.269,-6.5065 v -71.9842 -71.984 l 3.269,-6.5065 3.269,-6.5067 6.353,-4.2443 6.353,-4.2438 h 101.346 z"
         style="fill:#204a87;fill-opacity:1;fill-rule:nonzero;stroke-width:1.86971;stroke:none"
         sodipodi:nodetypes="ccccccccccccccccccccccccccccccccccccccccccccccccccccccccccccccccccccccccccccccccccccccccccccccccccccccccccccccccccccccccccccccccccccccccccccccccccccccccccccccccccccccccccccccccccccccccccccccccccccccccccccccccccccccccccccccccccccccccccccccccccccccccccccccccccccccccccccccccccccccccccccccccccccccccccccccccccccccccccccccccccccccccccccccccccccccccccccccccccccccccccccccccccccccccccccccccccccccccccccccccccccccccccccccccccccccccccccccccccccccccccccccccccccccccccccccccccccccccccccccccccccccccccccccccccccccccccccccccccccccccccccccccccccccccccccccccccccccccccccccccccccccccccccccccccccccccccccccccccccccccccccccccccccccccccccccccccccccccccccccccccccccccccccccccccccccccccccccccccccccccccccccccccccccccccccccccccccccccccccccccccccccccccccccccccccccccccccccccccccccccccccccccccccccccccccccccccccccccccccccccccccccccccccccccccccccccccccccccccccccccccccccccccccccccccccccccccccccccccccccccccccccccccccccccccccccccccccccccccccccccccccccccccccccccccccccccccccccccccccccccccccccccccccccccccccccccccccc" />
    </g>
  </g>
</svg>
