<?xml version="1.0" encoding="UTF-8" standalone="no"?>
<!-- Created with Inkscape (http://www.inkscape.org/) -->

<svg
   xmlns:dc="http://purl.org/dc/elements/1.1/"
   xmlns:cc="http://creativecommons.org/ns#"
   xmlns:rdf="http://www.w3.org/1999/02/22-rdf-syntax-ns#"
   xmlns:svg="http://www.w3.org/2000/svg"
   xmlns="http://www.w3.org/2000/svg"
   xmlns:sodipodi="http://sodipodi.sourceforge.net/DTD/sodipodi-0.dtd"
   xmlns:inkscape="http://www.inkscape.org/namespaces/inkscape"
   width="160"
   height="180"
   viewBox="0 0 42.333334 47.625005"
   version="1.1"
   id="svg8"
   inkscape:version="0.92.1 r15371"
   sodipodi:docname="24019-PrisonPC-trademark.svg">
  <defs
     id="defs2" />
  <sodipodi:namedview
     id="base"
     pagecolor="#eeeeec"
     bordercolor="#666666"
     borderopacity="1.0"
     inkscape:pageopacity="1"
     inkscape:pageshadow="2"
     inkscape:zoom="1"
     inkscape:cx="190.70671"
     inkscape:cy="90"
     inkscape:document-units="px"
     inkscape:current-layer="layer1"
     showgrid="true"
     units="px"
     width="1024px"
     inkscape:window-width="1920"
     inkscape:window-height="1080"
     inkscape:window-x="0"
     inkscape:window-y="0"
     inkscape:window-maximized="0"
     fit-margin-top="16"
     fit-margin-left="16"
     fit-margin-right="16"
     fit-margin-bottom="16"
     inkscape:pagecheckerboard="false"
     inkscape:measure-start="0,0"
     inkscape:measure-end="0,0">
    <inkscape:grid
       type="xygrid"
       id="grid3745"
       originx="0"
       originy="0"
       spacingx="4.2333336"
       spacingy="4.2333336" />
  </sodipodi:namedview>
  <metadata
     id="metadata5">
    <rdf:RDF>
      <cc:Work
         rdf:about="">
        <dc:format>image/svg+xml</dc:format>
        <dc:type
           rdf:resource="http://purl.org/dc/dcmitype/StillImage" />
        <dc:title></dc:title>
      </cc:Work>
    </rdf:RDF>
  </metadata>
  <g
     inkscape:label="Layer 1"
     inkscape:groupmode="layer"
     id="layer1"
     transform="translate(-5.9931184,-194.5449)">
    <path
       inkscape:connector-curvature="0"
       id="path3813"
       d="m 16.702171,237.93228 h 4.25292 l 0.45725,-0.11217 0.45725,-0.11217 0.56557,-0.26216 0.56558,-0.26217 0.44451,-0.29667 0.44453,-0.29667 9.17385,-9.16866 9.17383,-9.16869 -9.20916,-9.16049 -9.20916,-9.1605 -0.40521,-0.23803 -0.40521,-0.23802 -0.6044,-0.22637 -0.60439,-0.22637 -0.53694,-0.11037 -0.53694,-0.11025 h -4.15238 -4.15238 l -0.12655,0.0677 -0.12655,0.0677 -0.0426,0.11082 -0.0426,0.11081 0.0996,0.18715 0.0996,0.18716 9.3391,9.33456 9.33911,9.33455 v 0.0698 0.0698 l -9.23759,9.23005 -9.23761,9.23007 -0.20154,0.3097 -0.20155,0.3097 v 0.12063 0.12062 l 0.18355,0.14438 0.18354,0.14439 h 4.25294 z"
       style="fill:#204a87;fill-opacity:1;fill-rule:nonzero;stroke-width:0.06966158"
       sodipodi:nodetypes="cccccccccccccccccccccccccccccccccccccccc" />
  </g>
</svg>
